<?xml version="1.0" encoding="utf-8"?>
<!-- Generator: Adobe Illustrator 16.0.1, SVG Export Plug-In . SVG Version: 6.00 Build 0)  -->
<!DOCTYPE svg PUBLIC "-//W3C//DTD SVG 1.1//EN" "http://www.w3.org/Graphics/SVG/1.1/DTD/svg11.dtd">
<svg version="1.1" id="Layer_1" xmlns="http://www.w3.org/2000/svg" xmlns:xlink="http://www.w3.org/1999/xlink" x="0px" y="0px"
	 width="198px" height="361.333px" viewBox="0 0 198 361.333" enable-background="new 0 0 198 361.333" xml:space="preserve">
<path fill="#FFFFFF" stroke="#ADADAD" stroke-width="2" stroke-miterlimit="10" d="M180.312,331.725
	c0,8.703-7.059,15.76-15.762,15.76H33.758c-8.703,0-15.758-7.057-15.758-15.76V27.588c0-8.704,7.055-15.758,15.758-15.758h130.795
	c8.702,0,15.76,7.055,15.76,15.758V331.725L180.312,331.725z"/>
<path fill="none" stroke="#ADADAD" stroke-width="2" stroke-miterlimit="10" d="M107.822,323.846c0,5.223-4.232,9.455-9.454,9.455
	l0,0c-5.222,0-9.456-4.232-9.456-9.455l0,0c0-5.221,4.233-9.455,9.456-9.455l0,0C103.59,314.391,107.822,318.625,107.822,323.846
	L107.822,323.846z"/>
<rect x="27.455" y="38.62" fill="#98CC82" stroke="#ADADAD" stroke-width="2" stroke-miterlimit="10" width="143.402" height="261.587"/>
<line fill="none" stroke="#ADADAD" stroke-width="2" stroke-miterlimit="10" x1="84.186" y1="24.437" x2="109.398" y2="24.437"/>
<rect x="28" y="101.333" fill="none" width="141.334" height="260"/>
<g enable-background="new    ">
	<path fill="#FFFFFF" d="M91.343,112.924v23.73h-9.375v-22.266c0-2.93,0.389-5.662,1.172-8.203c0.778-2.536,1.904-4.783,3.369-6.738
		c1.465-1.95,3.319-3.465,5.566-4.541c2.243-1.071,4.834-1.611,7.764-1.611c2.733,0,5.173,0.54,7.324,1.611
		c2.147,1.076,4.001,2.591,5.565,4.541c1.562,1.955,2.733,4.202,3.517,6.738c0.778,2.541,1.172,5.273,1.172,8.203v12.305
		c0.192,10.94-1.075,20.119-3.81,27.539c-2.736,7.425-5.762,14.603-9.082,21.533c-3.322,6.937-6.348,14.553-9.082,22.853
		c-2.737,8.303-4.102,18.896-4.102,31.786h26.367v10.255h-36.62c0-17.186,1.318-30.763,3.955-40.724
		c2.637-9.961,5.566-18.503,8.789-25.635c3.223-7.127,6.151-13.815,8.789-20.068c2.637-6.248,3.955-14.062,3.955-23.438v-17.871
		c0-0.975-0.196-1.95-0.586-2.93c-0.394-0.975-0.929-1.804-1.611-2.49c-0.687-0.682-1.465-1.218-2.344-1.611
		c-0.879-0.389-1.904-0.586-3.076-0.586c-0.979,0-1.904,0.197-2.783,0.586c-0.879,0.394-1.662,0.93-2.344,1.611
		c-0.687,0.687-1.272,1.516-1.758,2.49C91.585,110.974,91.343,111.95,91.343,112.924z"/>
</g>
</svg>
