<?xml version="1.0" encoding="utf-8"?>
<!-- Generator: Adobe Illustrator 16.0.4, SVG Export Plug-In . SVG Version: 6.00 Build 0)  -->
<!DOCTYPE svg PUBLIC "-//W3C//DTD SVG 1.1//EN" "http://www.w3.org/Graphics/SVG/1.1/DTD/svg11.dtd">
<svg version="1.1" id="Layer_1" xmlns="http://www.w3.org/2000/svg" xmlns:xlink="http://www.w3.org/1999/xlink" x="0px" y="0px"
	 width="198px" height="361.333px" viewBox="0 0 198 361.333" enable-background="new 0 0 198 361.333" xml:space="preserve">
<path fill="none" stroke="#ADADAD" stroke-width="2" stroke-miterlimit="10" d="M180.312,331.726c0,8.703-7.057,15.759-15.76,15.759
	H33.758c-8.703,0-15.758-7.056-15.758-15.759V27.588c0-8.704,7.055-15.758,15.758-15.758h130.794c8.703,0,15.76,7.055,15.76,15.758
	V331.726z"/>
<path fill="none" stroke="#ADADAD" stroke-width="2" stroke-miterlimit="10" d="M107.822,323.847c0,5.221-4.232,9.455-9.454,9.455
	l0,0c-5.222,0-9.456-4.234-9.456-9.455l0,0c0-5.222,4.233-9.456,9.456-9.456l0,0C103.59,314.391,107.822,318.625,107.822,323.847
	L107.822,323.847z"/>
<rect x="27.455" y="38.62" fill="#98CC82" stroke="#ADADAD" stroke-width="2" stroke-miterlimit="10" width="143.402" height="261.588"/>
<line fill="none" stroke="#ADADAD" stroke-width="2" stroke-miterlimit="10" x1="84.186" y1="24.437" x2="109.398" y2="24.437"/>
<rect x="28" y="101.333" fill="none" width="141.334" height="260"/>
<text transform="matrix(1 0 0 1 74.0576 233.334)" fill="#FFFFFF" font-family="'indebted'" font-size="150">2</text>
</svg>
