<?xml version="1.0" encoding="utf-8"?>
<!-- Generator: Adobe Illustrator 16.0.4, SVG Export Plug-In . SVG Version: 6.00 Build 0)  -->
<!DOCTYPE svg PUBLIC "-//W3C//DTD SVG 1.1//EN" "http://www.w3.org/Graphics/SVG/1.1/DTD/svg11.dtd">
<svg version="1.1" id="Layer_1" xmlns="http://www.w3.org/2000/svg" xmlns:xlink="http://www.w3.org/1999/xlink" x="0px" y="0px"
	 width="413px" height="320px" viewBox="0 0 413 320" enable-background="new 0 0 413 320" xml:space="preserve">
<path fill="#FFFFFF" stroke="#ADADAD" stroke-width="2" stroke-miterlimit="10" d="M390.312,36.726H18v-9.137
	c0-8.704,7.055-15.758,15.758-15.758h340.794c8.703,0,15.761,7.055,15.761,15.758V36.726z"/>
<path fill="none" stroke="#ADADAD" stroke-width="2" stroke-miterlimit="10" d="M390.312,288.727
	c0,8.702-7.058,15.759-15.761,15.759H33.758c-8.703,0-15.758-7.057-15.758-15.759V27.588c0-8.704,7.055-15.758,15.758-15.758
	h340.794c8.703,0,15.761,7.055,15.761,15.758V288.727z"/>
<path fill="none" stroke="#ADADAD" stroke-width="2" stroke-miterlimit="10" d="M36.155,24.679c0,1.815-1.472,3.288-3.288,3.288l0,0
	c-1.816,0-3.289-1.473-3.289-3.288l0,0c0-1.815,1.472-3.289,3.289-3.289l0,0C34.684,21.391,36.155,22.863,36.155,24.679
	L36.155,24.679z"/>
<path fill="none" stroke="#ADADAD" stroke-width="2" stroke-miterlimit="10" d="M48.155,24.679c0,1.815-1.472,3.288-3.288,3.288l0,0
	c-1.816,0-3.289-1.473-3.289-3.288l0,0c0-1.815,1.472-3.289,3.289-3.289l0,0C46.684,21.391,48.155,22.863,48.155,24.679
	L48.155,24.679z"/>
<path fill="none" stroke="#ADADAD" stroke-width="2" stroke-miterlimit="10" d="M60.155,24.679c0,1.815-1.472,3.288-3.288,3.288l0,0
	c-1.816,0-3.289-1.473-3.289-3.288l0,0c0-1.815,1.472-3.289,3.289-3.289l0,0C58.684,21.391,60.155,22.863,60.155,24.679
	L60.155,24.679z"/>
<path fill="#333333" stroke="#ADADAD" stroke-width="2" stroke-miterlimit="10" d="M18,36.588v252.137
	c0,8.703,7.055,15.76,15.758,15.76h340.794c8.703,0,15.761-7.057,15.761-15.76V36.588H18z"/>
<g>
	<path fill="#98CC82" d="M40.188,60.388h6.56v0.608h-6.56V60.388z"/>
	<path fill="#98CC82" d="M49.788,60.388h6.56v0.608h-6.56V60.388z"/>
	<path fill="#98CC82" d="M59.387,60.388h6.56v0.608h-6.56V60.388z"/>
	<path fill="#98CC82" d="M68.987,60.388h6.56v0.608h-6.56V60.388z"/>
	<path fill="#98CC82" d="M78.586,60.388h6.56v0.608h-6.56V60.388z"/>
	<path fill="#98CC82" d="M88.186,60.388h6.56v0.608h-6.56V60.388z"/>
	<path fill="#98CC82" d="M97.786,60.388h6.56v0.608h-6.56V60.388z"/>
	<path fill="#98CC82" d="M107.385,60.388h6.561v0.608h-6.561V60.388z"/>
	<path fill="#98CC82" d="M116.984,60.388h6.561v0.608h-6.561V60.388z"/>
	<path fill="#98CC82" d="M126.584,60.388h6.561v0.608h-6.561V60.388L126.584,60.388z"/>
	<path fill="#98CC82" d="M136.184,60.388h6.561v0.608h-6.561V60.388z"/>
	<path fill="#98CC82" d="M145.783,60.388h6.561v0.608h-6.561V60.388z"/>
	<path fill="#98CC82" d="M155.383,60.388h6.561v0.608h-6.561V60.388z"/>
	<path fill="#98CC82" d="M164.982,60.388h6.561v0.608h-6.561V60.388z"/>
	<path fill="#98CC82" d="M174.582,60.388h6.561v0.608h-6.561V60.388z"/>
	<path fill="#98CC82" d="M184.182,60.388h6.561v0.608h-6.561V60.388z"/>
	<path fill="#98CC82" d="M193.781,60.388h6.561v0.608h-6.561V60.388z"/>
	<path fill="#98CC82" d="M203.381,60.388h6.561v0.608h-6.561V60.388z"/>
	<path fill="#98CC82" d="M212.98,60.388h6.561v0.608h-6.561V60.388z"/>
	<path fill="#98CC82" d="M222.58,60.388h6.561v0.608h-6.561V60.388z"/>
	<path fill="#98CC82" d="M232.18,60.388h6.562v0.608h-6.562V60.388z"/>
	<path fill="#98CC82" d="M81.634,84.9c-0.656-1.205-0.984-2.597-0.984-4.176c0-1.578,0.328-2.97,0.984-4.176
		c0.656-1.205,1.565-2.224,2.728-3.056l0.4,0.448c-1.163,0.896-2.019,1.901-2.568,3.016c-0.549,1.115-0.824,2.371-0.824,3.768
		c0,1.398,0.274,2.654,0.824,3.769c0.549,1.115,1.405,2.12,2.568,3.016l-0.4,0.448C83.2,87.124,82.291,86.105,81.634,84.9z"/>
	<path fill="#98CC82" d="M91.234,84.9c-0.656-1.205-0.984-2.597-0.984-4.176c0-1.578,0.328-2.97,0.984-4.176
		c0.656-1.205,1.565-2.224,2.728-3.056l0.4,0.448c-1.163,0.896-2.019,1.901-2.568,3.016s-0.824,2.371-0.824,3.768
		c0,1.398,0.274,2.654,0.824,3.769c0.549,1.115,1.405,2.12,2.568,3.016l-0.4,0.448C92.799,87.124,91.89,86.105,91.234,84.9z"/>
	<path fill="#98CC82" d="M100.834,84.9c-0.656-1.205-0.984-2.597-0.984-4.176c0-1.578,0.328-2.97,0.984-4.176
		c0.656-1.205,1.564-2.224,2.728-3.056l0.399,0.448c-1.162,0.896-2.018,1.901-2.567,3.016s-0.823,2.371-0.823,3.768
		c0,1.398,0.273,2.654,0.823,3.769c0.55,1.115,1.405,2.12,2.567,3.016l-0.399,0.448C102.398,87.124,101.49,86.105,100.834,84.9z"/>
	<path fill="#98CC82" d="M110.434,84.9c-0.656-1.205-0.984-2.597-0.984-4.176c0-1.578,0.328-2.97,0.984-4.176
		c0.656-1.205,1.564-2.224,2.728-3.056l0.399,0.448c-1.162,0.896-2.018,1.901-2.567,3.016c-0.549,1.115-0.823,2.371-0.823,3.768
		c0,1.398,0.273,2.654,0.823,3.769c0.55,1.115,1.405,2.12,2.567,3.016l-0.399,0.448C111.998,87.124,111.09,86.105,110.434,84.9z"/>
	<path fill="#98CC82" d="M72.035,104.1c-0.656-1.205-0.984-2.597-0.984-4.176c0-1.578,0.328-2.97,0.984-4.176
		c0.656-1.205,1.565-2.224,2.728-3.056l0.4,0.448c-1.163,0.896-2.019,1.901-2.568,3.017c-0.549,1.115-0.824,2.371-0.824,3.768
		c0,1.398,0.274,2.654,0.824,3.768c0.549,1.115,1.405,2.12,2.568,3.016l-0.4,0.448C73.6,106.324,72.691,105.305,72.035,104.1z"/>
	<path fill="#98CC82" d="M81.634,104.1c-0.656-1.205-0.984-2.597-0.984-4.176c0-1.578,0.328-2.97,0.984-4.176
		c0.656-1.205,1.565-2.224,2.728-3.056l0.4,0.448c-1.163,0.896-2.019,1.901-2.568,3.017c-0.549,1.115-0.824,2.371-0.824,3.768
		c0,1.398,0.274,2.654,0.824,3.768c0.549,1.115,1.405,2.12,2.568,3.016l-0.4,0.448C83.2,106.324,82.291,105.305,81.634,104.1z"/>
	<path fill="#98CC82" d="M91.234,104.1c-0.656-1.205-0.984-2.597-0.984-4.176c0-1.578,0.328-2.97,0.984-4.176
		c0.656-1.205,1.565-2.224,2.728-3.056l0.4,0.448c-1.163,0.896-2.019,1.901-2.568,3.017c-0.549,1.115-0.824,2.371-0.824,3.768
		c0,1.398,0.274,2.654,0.824,3.768c0.549,1.115,1.405,2.12,2.568,3.016l-0.4,0.448C92.799,106.324,91.89,105.305,91.234,104.1z"/>
	<path fill="#98CC82" d="M100.834,104.1c-0.656-1.205-0.984-2.597-0.984-4.176c0-1.578,0.328-2.97,0.984-4.176
		c0.656-1.205,1.564-2.224,2.728-3.056l0.399,0.448c-1.162,0.896-2.018,1.901-2.567,3.017c-0.549,1.115-0.823,2.371-0.823,3.768
		c0,1.398,0.273,2.654,0.823,3.768c0.55,1.115,1.405,2.12,2.567,3.016l-0.399,0.448C102.398,106.324,101.49,105.305,100.834,104.1z"
		/>
	<path fill="#98CC82" d="M78.97,125.908c1.163-0.896,2.019-1.901,2.568-3.016c0.549-1.114,0.824-2.37,0.824-3.768
		c0-1.397-0.274-2.653-0.824-3.768c-0.55-1.115-1.406-2.12-2.568-3.016l0.4-0.448c1.162,0.832,2.072,1.851,2.728,3.056
		c0.656,1.206,0.984,2.598,0.984,4.176c0,1.579-0.328,2.971-0.984,4.176c-0.656,1.205-1.566,2.224-2.728,3.056L78.97,125.908z"/>
	<path fill="#98CC82" d="M88.57,125.908c1.163-0.896,2.019-1.901,2.568-3.016c0.549-1.114,0.824-2.37,0.824-3.768
		c0-1.397-0.274-2.653-0.824-3.768c-0.55-1.115-1.406-2.12-2.568-3.016l0.4-0.448c1.162,0.832,2.072,1.851,2.728,3.056
		c0.656,1.206,0.984,2.598,0.984,4.176c0,1.579-0.328,2.971-0.984,4.176c-0.656,1.205-1.566,2.224-2.728,3.056L88.57,125.908z"/>
	<path fill="#98CC82" d="M98.169,125.908c1.163-0.896,2.018-1.901,2.569-3.016c0.549-1.114,0.823-2.37,0.823-3.768
		c0-1.397-0.274-2.653-0.823-3.768c-0.551-1.115-1.406-2.12-2.569-3.016l0.4-0.448c1.162,0.832,2.072,1.851,2.728,3.056
		c0.655,1.206,0.983,2.598,0.983,4.176c0,1.579-0.328,2.971-0.983,4.176c-0.656,1.205-1.566,2.224-2.728,3.056L98.169,125.908z"/>
	<path fill="#98CC82" d="M107.77,125.908c1.162-0.896,2.018-1.901,2.568-3.016c0.549-1.114,0.823-2.37,0.823-3.768
		c0-1.397-0.274-2.653-0.823-3.768c-0.551-1.115-1.406-2.12-2.568-3.016l0.4-0.448c1.162,0.832,2.071,1.851,2.728,3.056
		c0.655,1.206,0.983,2.598,0.983,4.176c0,1.579-0.328,2.971-0.983,4.176c-0.656,1.205-1.565,2.224-2.728,3.056L107.77,125.908z"/>
	<path fill="#98CC82" d="M56.908,144.036v0.736h-7.68v-0.736H56.908z"/>
	<path fill="#98CC82" d="M71.307,141.923c0-0.341,0.099-0.6,0.296-0.776s0.418-0.264,0.664-0.264s0.467,0.088,0.664,0.264
		c0.197,0.176,0.296,0.435,0.296,0.776c0,0.331-0.099,0.587-0.296,0.768c-0.197,0.181-0.418,0.272-0.664,0.272
		c-0.245,0-0.467-0.091-0.664-0.272C71.405,142.51,71.307,142.254,71.307,141.923z"/>
	<path fill="#98CC82" d="M78.586,137.188h6.56v0.608h-6.56V137.188z"/>
	<path fill="#98CC82" d="M88.186,137.188h6.56v0.608h-6.56V137.188z"/>
	<path fill="#98CC82" d="M97.786,137.188h6.56v0.608h-6.56V137.188z"/>
	<path fill="#98CC82" d="M109.705,141.923c0-0.341,0.099-0.6,0.297-0.776c0.196-0.176,0.418-0.264,0.663-0.264
		s0.467,0.088,0.664,0.264c0.197,0.176,0.296,0.435,0.296,0.776c0,0.331-0.099,0.587-0.296,0.768
		c-0.197,0.181-0.419,0.272-0.664,0.272s-0.467-0.091-0.663-0.272C109.804,142.51,109.705,142.254,109.705,141.923z"/>
	<path fill="#98CC82" d="M43.236,161.7c-0.656-1.205-0.984-2.597-0.984-4.176c0-1.578,0.328-2.97,0.984-4.176
		c0.656-1.205,1.565-2.224,2.728-3.056l0.4,0.448c-1.163,0.896-2.019,1.901-2.568,3.016c-0.549,1.115-0.824,2.371-0.824,3.768
		c0,1.398,0.274,2.654,0.824,3.768c0.549,1.115,1.405,2.12,2.568,3.017l-0.4,0.447C44.801,163.924,43.892,162.905,43.236,161.7z"/>
	<path fill="#98CC82" d="M62.347,149.972h0.64v16h-0.64V149.972z"/>
	<path fill="#98CC82" d="M70.843,150.612h0.848l1.472,2.208h-0.608L70.843,150.612z"/>
	<path fill="#98CC82" d="M78.586,156.388h6.56v0.608h-6.56V156.388z"/>
	<path fill="#98CC82" d="M88.186,156.388h6.56v0.608h-6.56V156.388z"/>
	<path fill="#98CC82" d="M97.786,156.388h6.56v0.608h-6.56V156.388z"/>
	<path fill="#98CC82" d="M110.057,152.388v-1.424h1.217v1.424l-0.32,3.488h-0.576L110.057,152.388z"/>
	<path fill="#98CC82" d="M119.945,149.972h0.64v16h-0.64V149.972z"/>
	<path fill="#98CC82" d="M50.092,169.812h0.72l5.232,13.92h-0.72L50.092,169.812z"/>
	<path fill="#98CC82" d="M62.347,169.172h0.64v16h-0.64V169.172z"/>
	<path fill="#98CC82" d="M119.945,169.172h0.64v16h-0.64V169.172z"/>
	<path fill="#98CC82" d="M52.107,193.475c0-0.34,0.099-0.6,0.296-0.774c0.197-0.177,0.418-0.265,0.664-0.265
		s0.467,0.088,0.664,0.265c0.197,0.176,0.296,0.436,0.296,0.774c0,0.332-0.099,0.588-0.296,0.771
		c-0.197,0.182-0.418,0.271-0.664,0.271c-0.245,0-0.467-0.09-0.664-0.271C52.206,194.062,52.107,193.807,52.107,193.475z
		 M52.107,199.523c0-0.343,0.099-0.601,0.296-0.775c0.197-0.176,0.418-0.264,0.664-0.264s0.467,0.088,0.664,0.264
		c0.197,0.176,0.296,0.434,0.296,0.775c0,0.33-0.099,0.586-0.296,0.768c-0.197,0.182-0.418,0.273-0.664,0.273
		c-0.245,0-0.467-0.093-0.664-0.273C52.206,200.109,52.107,199.854,52.107,199.523z"/>
	<path fill="#98CC82" d="M71.307,199.523c0-0.343,0.099-0.601,0.296-0.775c0.197-0.176,0.418-0.264,0.664-0.264
		s0.467,0.088,0.664,0.264c0.197,0.176,0.296,0.434,0.296,0.775c0,0.33-0.099,0.586-0.296,0.768
		c-0.197,0.182-0.418,0.273-0.664,0.273c-0.245,0-0.467-0.093-0.664-0.273C71.405,200.109,71.307,199.854,71.307,199.523z"/>
	<path fill="#98CC82" d="M85.707,201.635v0.736h-7.68v-0.736H85.707z"/>
	<path fill="#98CC82" d="M95.306,201.635v0.736h-7.68v-0.736H95.306z"/>
	<path fill="#98CC82" d="M104.906,201.635v0.736h-7.681v-0.736H104.906z"/>
	<path fill="#98CC82" d="M109.145,203.219c0.641-0.309,1.126-0.693,1.457-1.149c0.33-0.459,0.506-1.041,0.527-1.744
		c-0.127,0.03-0.25,0.047-0.367,0.047c-0.277,0-0.508-0.076-0.688-0.232c-0.182-0.153-0.272-0.391-0.272-0.711
		c0-0.329,0.1-0.573,0.297-0.729c0.197-0.155,0.418-0.232,0.664-0.232c0.373,0,0.652,0.148,0.84,0.441
		c0.186,0.293,0.279,0.688,0.279,1.19c0,0.896-0.227,1.648-0.68,2.256c-0.453,0.608-1.053,1.072-1.8,1.394L109.145,203.219z"/>
	<path fill="#98CC82" d="M128.904,193.475c0-0.34,0.099-0.6,0.297-0.774c0.196-0.177,0.418-0.265,0.663-0.265
		c0.245,0,0.467,0.088,0.664,0.265c0.197,0.176,0.296,0.436,0.296,0.774c0,0.332-0.099,0.588-0.296,0.771
		c-0.197,0.182-0.419,0.271-0.664,0.271c-0.245,0-0.467-0.09-0.663-0.271C129.003,194.062,128.904,193.807,128.904,193.475z
		 M128.904,199.523c0-0.343,0.099-0.601,0.297-0.775c0.196-0.176,0.418-0.264,0.663-0.264c0.245,0,0.467,0.088,0.664,0.264
		c0.197,0.176,0.296,0.434,0.296,0.775c0,0.33-0.099,0.586-0.296,0.768c-0.197,0.182-0.419,0.273-0.664,0.273
		c-0.245,0-0.467-0.093-0.663-0.273C129.003,200.109,128.904,199.854,128.904,199.523z"/>
	<path fill="#98CC82" d="M61.243,208.211h0.848l1.472,2.209h-0.608L61.243,208.211z"/>
	<path fill="#98CC82" d="M68.987,213.988h6.56v0.606h-6.56V213.988z"/>
	<path fill="#98CC82" d="M78.586,213.988h6.56v0.606h-6.56V213.988z"/>
	<path fill="#98CC82" d="M88.186,213.988h6.56v0.606h-6.56V213.988z"/>
	<path fill="#98CC82" d="M97.786,213.988h6.56v0.606h-6.56V213.988z"/>
	<path fill="#98CC82" d="M107.385,213.988h6.561v0.606h-6.561V213.988z"/>
	<path fill="#98CC82" d="M119.656,209.988v-1.424h1.217v1.424l-0.32,3.488h-0.576L119.656,209.988z"/>
	<path fill="#98CC82" d="M40.188,233.188h6.56v0.609h-6.56V233.188z"/>
	<path fill="#98CC82" d="M49.788,233.188h6.56v0.609h-6.56V233.188z"/>
	<path fill="#98CC82" d="M59.387,233.188h6.56v0.609h-6.56V233.188z"/>
	<path fill="#98CC82" d="M68.987,233.188h6.56v0.609h-6.56V233.188z"/>
	<path fill="#98CC82" d="M78.586,233.188h6.56v0.609h-6.56V233.188z"/>
	<path fill="#98CC82" d="M88.186,233.188h6.56v0.609h-6.56V233.188z"/>
	<path fill="#98CC82" d="M97.786,233.188h6.56v0.609h-6.56V233.188z"/>
	<path fill="#98CC82" d="M107.385,233.188h6.561v0.609h-6.561V233.188z"/>
	<path fill="#98CC82" d="M116.984,233.188h6.561v0.609h-6.561V233.188z"/>
	<path fill="#98CC82" d="M126.584,233.188h6.561v0.609h-6.561V233.188L126.584,233.188z"/>
	<path fill="#98CC82" d="M136.184,233.188h6.561v0.609h-6.561V233.188z"/>
	<path fill="#98CC82" d="M145.783,233.188h6.561v0.609h-6.561V233.188z"/>
	<path fill="#98CC82" d="M155.383,233.188h6.561v0.609h-6.561V233.188z"/>
	<path fill="#98CC82" d="M164.982,233.188h6.561v0.609h-6.561V233.188z"/>
	<path fill="#98CC82" d="M174.582,233.188h6.561v0.609h-6.561V233.188z"/>
	<path fill="#98CC82" d="M184.182,233.188h6.561v0.609h-6.561V233.188z"/>
	<path fill="#98CC82" d="M193.781,233.188h6.561v0.609h-6.561V233.188z"/>
	<path fill="#98CC82" d="M203.381,233.188h6.561v0.609h-6.561V233.188z"/>
	<path fill="#98CC82" d="M212.98,233.188h6.561v0.609h-6.561V233.188z"/>
	<path fill="#98CC82" d="M222.58,233.188h6.561v0.609h-6.561V233.188z"/>
	<path fill="#98CC82" d="M232.18,233.188h6.562v0.609h-6.562V233.188z"/>
	<path fill="#98CC82" d="M46.3,272.18l-5.84,4.064v-0.77l5.152-3.585v-0.062l-5.152-3.584v-0.771l5.84,4.064V272.18z"/>
	<path fill="#98CC82" d="M56.908,278.436v0.736h-7.68v-0.736H56.908z"/>
</g>
</svg>
