<?xml version="1.0" encoding="utf-8"?>
<!-- Generator: Adobe Illustrator 16.0.1, SVG Export Plug-In . SVG Version: 6.00 Build 0)  -->
<!DOCTYPE svg PUBLIC "-//W3C//DTD SVG 1.1//EN" "http://www.w3.org/Graphics/SVG/1.1/DTD/svg11.dtd">
<svg version="1.1" id="Layer_1" xmlns="http://www.w3.org/2000/svg" xmlns:xlink="http://www.w3.org/1999/xlink" x="0px" y="0px"
	 width="1024px" height="1024px" viewBox="0 0 1024 1024" enable-background="new 0 0 1024 1024" xml:space="preserve">
<g id="Layer_1_1_" display="none">
	<g display="inline">
		<path fill="#4A4748" d="M663.99,574.24H364.222v234.178c44.139,25.559,95.222,40.383,149.885,40.383
			c54.66,0,105.76-14.858,149.883-40.383V574.24z"/>
	</g>
	<path display="inline" fill="#4A4748" d="M528.174,220.771V184.11h64.338v-28.136H436.532v28.136h63.501v36.661H287.979v56.284
		h29.205v18.467v28.143V845.67l7.025,4.074c57.806,33.502,123.477,51.197,189.913,51.197s132.119-17.695,189.979-51.197l7.024-4.074
		V323.666v-28.143v-18.467h27.149v-56.284L528.174,220.771L528.174,220.771z M494.548,234.652h39.933
		c7.731,0,11.648,5.839,8.681,12.993l-23.777,57.344c-2.97,7.139-7.749,7.108-10.636-0.066l-23.023-57.227
		C482.834,240.521,486.817,234.652,494.548,234.652z M682.984,829.355c-103.66,56.87-234.082,56.87-337.661,0v-505.69h154.71
		v210.161H376.449c-7.781,0-14.074,6.285-14.074,14.067c0,7.767,6.293,14.073,14.074,14.073h275.536
		c7.781,0,14.074-6.308,14.074-14.073c0-7.782-6.293-14.067-14.074-14.067H528.174v-210.16h154.811L682.984,829.355L682.984,829.355
		z"/>
	
		<circle display="inline" fill="none" stroke="#4A4748" stroke-width="30" stroke-miterlimit="10" cx="512" cy="528.457" r="449.445"/>
	<path display="inline" fill="none" stroke="#4A4748" stroke-width="30" stroke-miterlimit="10" d="M694.258,713.748
		c47.928-47.148,77.646-112.749,77.646-185.291c0-73.648-30.633-140.141-79.852-187.436"/>
	<path display="inline" fill="none" stroke="#4A4748" stroke-width="30" stroke-miterlimit="10" d="M328.219,344.676
		c-47.034,47.034-76.125,112.01-76.125,183.781c0,74.497,31.344,141.674,81.562,189.062"/>
</g>
<g id="Layer_2" display="none">
	
		<rect x="133.948" y="334.482" display="inline" fill="none" stroke="#4A4748" stroke-width="30" stroke-miterlimit="10" width="354.241" height="354.239"/>
	
		<rect x="536.413" y="334.482" display="inline" fill="none" stroke="#4A4748" stroke-width="30" stroke-miterlimit="10" width="354.24" height="354.239"/>
	
		<rect x="76.657" y="277.975" display="inline" fill="none" stroke="#4A4748" stroke-width="30" stroke-miterlimit="10" width="866.685" height="458.051"/>
	<g display="inline">
		<path fill="#4A4748" d="M351.448,591.231c-5.595,3.99-12.713,6.849-21.362,8.581c-8.65,1.731-17.521,2.601-26.605,2.601
			c-11.01,0-21.453-1.702-31.324-5.11c-9.875-3.408-18.568-8.912-26.08-16.515c-7.517-7.601-13.5-17.471-17.955-29.62
			c-4.457-12.144-6.686-26.868-6.686-44.168c0-17.996,2.49-33.068,7.47-45.216c4.981-12.146,11.444-21.929,19.397-29.358
			c7.95-7.426,16.817-12.754,26.604-15.99c9.785-3.229,19.569-4.849,29.358-4.849c10.485,0,19.354,0.7,26.606,2.097
			c7.249,1.4,13.236,3.061,17.955,4.98l-7.077,30.406c-4.022-1.921-8.781-3.317-14.286-4.193
			c-5.505-0.872-12.188-1.311-20.053-1.311c-14.508,0-26.172,5.169-34.993,15.497c-8.826,10.334-13.238,26.355-13.238,48.067
			c0,9.456,1.05,18.082,3.146,25.872c2.099,7.794,5.284,14.45,9.568,19.963c4.28,5.519,9.608,9.81,15.989,12.872
			c6.377,3.063,13.762,4.596,22.149,4.596c7.863,0,14.502-0.786,19.922-2.358c5.413-1.572,10.133-3.579,14.154-6.028
			L351.448,591.231z"/>
	</g>
	<g display="inline">
		<path fill="#4A4748" d="M739.485,549.465c0-5.591-2.058-10.134-6.16-13.63c-4.108-3.494-9.266-6.686-15.466-9.568
			c-6.205-2.883-12.935-5.853-20.184-8.911c-7.254-3.057-13.983-6.815-20.186-11.271c-6.205-4.456-11.359-10.002-15.465-16.645
			c-4.106-6.641-6.16-15.113-6.16-25.428c0-8.912,1.483-16.645,4.456-23.197c2.97-6.554,7.209-12.014,12.714-16.384
			c5.505-4.364,12.013-7.602,19.527-9.697c7.512-2.099,15.9-3.146,25.164-3.146c10.658,0,20.708,0.917,30.145,2.752
			c9.438,1.835,17.211,4.501,23.329,7.995l-11.271,30.146c-3.848-2.445-9.612-4.674-17.302-6.686
			c-7.69-2.007-15.989-3.015-24.901-3.015c-8.387,0-14.811,1.663-19.268,4.979c-4.454,3.322-6.684,7.778-6.684,13.369
			c0,5.242,2.052,9.612,6.16,13.105c4.104,3.498,9.261,6.729,15.466,9.698c6.201,2.975,12.93,6.028,20.184,9.175
			c7.25,3.146,13.979,6.946,20.185,11.402c6.201,4.455,11.356,9.96,15.465,16.515c4.104,6.553,6.16,14.724,6.16,24.508
			c0,9.789-1.618,18.218-4.851,25.295c-3.234,7.078-7.775,12.976-13.63,17.693c-5.855,4.718-12.935,8.218-21.231,10.484
			c-8.302,2.271-17.432,3.407-27.394,3.407c-13.105,0-24.64-1.224-34.6-3.668c-9.962-2.446-17.301-4.893-22.019-7.341l11.532-30.668
			c1.921,1.047,4.411,2.187,7.472,3.406c3.056,1.225,6.508,2.359,10.354,3.407c3.843,1.05,7.904,1.925,12.188,2.621
			c4.279,0.702,8.691,1.05,13.237,1.05c10.656,0,18.827-1.791,24.51-5.374C736.643,562.268,739.485,556.805,739.485,549.465z"/>
	</g>
</g>
<g id="Layer_3" display="none">
	<circle display="inline" fill="none" cx="511.998" cy="528.459" r="342.616"/>
	
		<text transform="matrix(0.6477 -0.7619 0.7619 0.6477 260.1165 389.6406)" display="inline" fill="#4A4748" font-family="'ClearSans-Light'" font-size="180">C</text>
	
		<text transform="matrix(0.6477 -0.7619 0.7619 0.6477 329.8752 305.0596)" display="inline" fill="#4A4748" font-family="'ClearSans-Light'" font-size="180">O</text>
	
		<text transform="matrix(0.6477 -0.7619 0.7619 0.6477 432.7034 253.7041)" display="inline" fill="#4A4748" font-family="'ClearSans-Light'" font-size="180">F</text>
	
		<text transform="matrix(0.6477 -0.7619 0.7619 0.6477 526.5764 242.7705)" display="inline" fill="#4A4748" font-family="'ClearSans-Light'" font-size="180">F</text>
	
		<text transform="matrix(0.6477 -0.7619 0.7619 0.6477 618.6711 262.6768)" display="inline" fill="#4A4748" font-family="'ClearSans-Light'" font-size="180">E</text>
	
		<text transform="matrix(0.6477 -0.7619 0.7619 0.6477 702.0286 314.1807)" display="inline" fill="#4A4748" font-family="'ClearSans-Light'" font-size="180">E</text>
	
		<line display="inline" fill="none" stroke="#4A4748" stroke-width="30" stroke-miterlimit="10" x1="-82.658" y1="-17" x2="-949.344" y2="-17"/>
	<rect x="-571" y="133" display="inline" fill="#4A4748" width="206" height="216"/>
	
		<circle display="inline" fill="none" stroke="#4A4748" stroke-width="30" stroke-miterlimit="10" cx="512" cy="528.457" r="449.445"/>
	
		<circle display="inline" fill="none" stroke="#4A4748" stroke-width="30" stroke-miterlimit="10" cx="512" cy="528.457" r="242.429"/>
	<g display="inline">
		<path fill="#4A4748" d="M395.461,483.918c-43.941,7.318-74.702,54.281-69.37,107.453c5.331,53.172,44.805,93.092,89.323,91.54
			L395.461,483.918z"/>
		<path fill="#4A4748" d="M404.832,482.978l19.954,198.993c43.943-7.315,74.704-54.279,69.373-107.452
			C488.827,521.348,449.353,481.426,404.832,482.978z"/>
	</g>
	<g display="inline">
		<path fill="#4A4748" d="M636.803,507.938c-39.931-13.206-86.276,12.503-105.197,59.27c-18.924,46.764-3.497,97.471,34.377,115.748
			L636.803,507.938z"/>
		<path fill="#4A4748" d="M645.045,511.271l-70.82,175.018c39.929,13.205,86.275-12.501,105.199-59.268
			C698.348,580.254,682.92,529.551,645.045,511.271z"/>
	</g>
	<g display="inline">
		<path fill="#4A4748" d="M519.317,327.647c-41.974,2.628-75.399,43.757-75.531,94.205c-0.13,50.448,33.082,91.753,75.039,94.6
			L519.317,327.647z"/>
		<path fill="#4A4748" d="M528.209,327.669l-0.492,188.801c41.973-2.624,75.401-43.753,75.531-94.202
			C603.381,371.819,570.168,330.517,528.209,327.669z"/>
	</g>
	<path display="inline" fill="none" d="M260.399,295.9c128.438-138.956,345.205-147.473,484.161-19.04
		c138.953,128.437,147.479,345.203,19.04,484.16C635.162,899.973,418.397,908.5,279.441,780.057
		C140.486,651.623,131.962,434.855,260.399,295.9z"/>
	
		<text transform="matrix(0.873 0.4877 -0.4877 0.873 270.4211 855.7129)" display="inline" fill="#4A4748" font-family="'ClearSans-Light'" font-size="180">T</text>
	
		<text transform="matrix(0.873 0.4877 -0.4877 0.873 399.8176 917.3516)" display="inline" fill="#4A4748" font-family="'ClearSans-Light'" font-size="180">I</text>
	
		<text transform="matrix(0.873 0.4877 -0.4877 0.873 505.4495 937.5781)" display="inline" fill="#4A4748" font-family="'ClearSans-Light'" font-size="180">M</text>
	
		<text transform="matrix(0.873 0.4877 -0.4877 0.873 668.7151 903.7842)" display="inline" fill="#4A4748" font-family="'ClearSans-Light'" font-size="180">E</text>
	<g id="Layer_4" display="inline">
	</g>
</g>
<g id="Layer_5" display="none">
	<path display="inline" fill="#252525" d="M424.162,680.903V783.34l0.05,4.213c0,17.211-15.044,31.162-33.604,31.162
		s-33.604-13.951-33.604-31.162v-4.213V547.021l0.251-45.556V305.204l-0.062-1.381c0-17.211,15.045-33.418,33.604-33.418
		c18.558,0,33.603,16.207,33.603,33.418v1.381v92.771h40v-86.901c0-51.848-24.458-93.927-77.62-93.927
		c-46.013,0-77.771,42.053-77.771,93.927v3.383v458.929v5.277c0,53.699,33.708,97.236,79.511,97.236
		c50.298,0,82.933-39.019,82.933-97.236v-3.588v-94.171H424.162L424.162,680.903z"/>
	<polygon display="inline" fill="#252525" points="743.492,223.034 675.756,222.94 675.756,222.783 628.635,222.783 
		628.629,222.874 557.573,222.783 557.573,273.284 625.131,273.284 623,303.994 623,867.5 675.504,867.5 675.734,273.284 
		743.492,273.284 	"/>
	<path display="inline" fill="#252525" d="M554.902,500h0.062l-23.034-42.957c0-0.016-0.016-0.03-0.022-0.038l-0.136-0.264h-0.045
		c-1.045-2.152-3.198-3.661-5.75-3.661c-2.555,0-4.706,1.509-5.763,3.661h-0.038l-0.132,0.249c-0.01,0.022-0.024,0.038-0.024,0.053
		l-21.055,39.268h0.091c-3.106,4.921-4.964,10.699-4.964,16.944c0,17.604,14.281,31.886,31.885,31.886
		c17.605,0,31.885-14.281,31.885-31.886C557.861,508.509,556.762,504.033,554.902,500z"/>
	<g display="inline">
		<path fill="#252525" d="M970.196,959.562H64.704V54.074h905.491V959.562z M100.509,923.758h833.88V89.88h-833.88V923.758
			L100.509,923.758z"/>
	</g>
	<g display="inline">
		<rect x="296.009" y="133.21" fill="#252525" width="464.483" height="37.34"/>
	</g>
	<path display="inline" fill="#EFEFEF" d="M-643.353,680.903V783.34l0.049,4.213c0,17.211-15.044,31.162-33.603,31.162
		c-18.561,0-33.604-13.951-33.604-31.162v-4.213V547.021l0.251-45.556V305.204l-0.062-1.381c0-17.211,15.045-33.418,33.603-33.418
		c18.559,0,33.604,16.207,33.604,33.418v1.381v92.771h40.002v-86.901c0-51.848-24.458-93.927-77.62-93.927
		c-46.013,0-77.771,42.053-77.771,93.927v3.383v458.929v5.277c0,53.699,33.708,97.236,79.511,97.236
		c50.298,0,82.933-39.019,82.933-97.236v-3.588v-94.171H-643.353L-643.353,680.903z"/>
	<polygon display="inline" fill="#EFEFEF" points="-324.022,223.034 -391.76,222.94 -391.76,222.783 -438.881,222.783 
		-438.887,222.874 -509.941,222.783 -509.941,273.284 -442.385,273.284 -444.516,303.994 -444.516,867.5 -392.012,867.5 
		-391.781,273.284 -324.022,273.284 	"/>
	<path display="inline" fill="#EFEFEF" d="M-512.613,500h0.062l-23.034-42.957c0-0.016-0.016-0.03-0.022-0.038l-0.136-0.264h-0.045
		c-1.045-2.152-3.198-3.661-5.75-3.661c-2.555,0-4.706,1.509-5.763,3.661h-0.038l-0.133,0.249c-0.009,0.022-0.023,0.038-0.023,0.053
		l-21.055,39.268h0.091c-3.106,4.921-4.964,10.699-4.964,16.944c0,17.604,14.28,31.886,31.885,31.886s31.885-14.281,31.885-31.886
		C-509.654,508.509-510.754,504.033-512.613,500z"/>
	<g display="inline">
		<rect x="-771.508" y="133.21" fill="#EFEFEF" width="464.484" height="37.34"/>
	</g>
	<path display="inline" fill="#EFEFEF" d="M1645.877,680.903V783.34l0.049,4.213c0,17.211-15.045,31.162-33.604,31.162
		s-33.604-13.951-33.604-31.162v-4.213V547.021l0.251-45.556V305.204l-0.062-1.381c0-17.211,15.046-33.418,33.604-33.418
		c18.559,0,33.603,16.207,33.603,33.418v1.381v92.771h40.002v-86.901c0-51.848-24.458-93.927-77.62-93.927
		c-46.013,0-77.771,42.053-77.771,93.927v3.383v458.929v5.277c0,53.699,33.707,97.236,79.512,97.236
		c50.297,0,82.932-39.019,82.932-97.236v-3.588v-94.171H1645.877L1645.877,680.903z"/>
	<polygon display="inline" fill="#EFEFEF" points="1965.207,223.034 1897.47,222.94 1897.47,222.783 1850.349,222.783 
		1850.343,222.874 1779.287,222.783 1779.287,273.284 1846.845,273.284 1844.714,303.994 1844.714,867.5 1897.218,867.5 
		1897.448,273.284 1965.207,273.284 	"/>
	<path display="inline" fill="#EFEFEF" d="M1776.615,500h0.062l-23.034-42.957c0-0.016-0.015-0.03-0.022-0.038l-0.136-0.264h-0.045
		c-1.045-2.152-3.198-3.661-5.75-3.661c-2.555,0-4.706,1.509-5.763,3.661h-0.038l-0.132,0.249c-0.01,0.022-0.024,0.038-0.024,0.053
		l-21.056,39.268h0.092c-3.105,4.921-4.965,10.699-4.965,16.944c0,17.604,14.281,31.886,31.886,31.886
		c17.605,0,31.885-14.281,31.885-31.886C1779.574,508.509,1778.476,504.033,1776.615,500z"/>
	<g display="inline">
		<rect x="1517.723" y="133.21" fill="#EFEFEF" width="464.484" height="37.34"/>
	</g>
	
		<circle display="inline" fill="none" stroke="#EFEFEF" stroke-width="40" stroke-miterlimit="10" cx="1747.69" cy="506.818" r="504.243"/>
	<path display="inline" fill="#EFEFEF" d="M1675.877,2060.604v102.437l0.049,4.213c0,17.211-15.045,31.162-33.604,31.162
		s-33.604-13.951-33.604-31.162v-4.213v-236.32l0.251-45.555v-196.262l-0.062-1.382c0-17.213,15.046-33.42,33.604-33.42
		c18.559,0,33.603,16.207,33.603,33.42v1.382v92.771h40.002v-86.902c0-51.848-24.458-93.928-77.62-93.928
		c-46.013,0-77.771,42.053-77.771,93.928v3.384v458.929v5.277c0,53.699,33.707,97.236,79.512,97.236
		c50.297,0,82.932-39.019,82.932-97.236v-3.588v-94.171L1675.877,2060.604L1675.877,2060.604z"/>
	<polygon display="inline" fill="#EFEFEF" points="1945.207,1602.733 1877.47,1602.64 1877.47,1602.48 1830.349,1602.48 
		1830.343,1602.573 1759.287,1602.48 1759.287,1652.983 1826.845,1652.983 1824.714,1683.692 1824.714,2247.199 1877.218,2247.199 
		1877.448,1652.983 1945.207,1652.983 	"/>
	<g display="inline">
		<rect x="1517.723" y="1512.909" fill="#EFEFEF" width="464.484" height="37.34"/>
	</g>
	
		<circle display="inline" fill="none" stroke="#EFEFEF" stroke-width="40" stroke-miterlimit="10" cx="1747.69" cy="1886.517" r="504.243"/>
	<path display="inline" fill="#EFEFEF" d="M424.162,2033.683v102.438l0.05,4.213c0,17.211-15.044,31.162-33.604,31.162
		s-33.604-13.951-33.604-31.162v-4.213V1899.8l0.251-45.555v-196.263l-0.062-1.382c0-17.211,15.045-33.418,33.604-33.418
		c18.558,0,33.603,16.207,33.603,33.418v1.382v92.771h40v-86.902c0-51.848-24.458-93.927-77.62-93.927
		c-46.013,0-77.771,42.053-77.771,93.927v3.384v458.93v5.277c0,53.699,33.708,97.236,79.511,97.236
		c50.298,0,82.933-39.019,82.933-97.236v-3.588v-94.171H424.162L424.162,2033.683z"/>
	<polygon display="inline" fill="#EFEFEF" points="743.492,1575.812 675.756,1575.719 675.756,1575.562 628.635,1575.562 
		628.629,1575.653 557.573,1575.562 557.573,1626.062 625.131,1626.062 623,1656.773 623,2220.279 675.504,2220.279 
		675.734,1626.062 743.492,1626.062 	"/>
	<path display="inline" fill="#EFEFEF" d="M554.902,1852.779h0.062l-23.034-42.957c0-0.017-0.016-0.029-0.022-0.037l-0.136-0.264
		h-0.045c-1.045-2.152-3.198-3.662-5.75-3.662c-2.555,0-4.706,1.51-5.763,3.662h-0.038l-0.132,0.248
		c-0.01,0.022-0.024,0.036-0.024,0.053l-21.055,39.269h0.091c-3.106,4.92-4.964,10.699-4.964,16.944
		c0,17.604,14.281,31.886,31.885,31.886c17.605,0,31.885-14.282,31.885-31.886C557.861,1861.288,556.762,1856.812,554.902,1852.779z
		"/>
	<g display="inline">
		<path fill="#EFEFEF" d="M970.196,2312.342H64.704v-905.488h905.491V2312.342z M100.509,2276.537h833.88v-833.878h-833.88V2276.537
			L100.509,2276.537z"/>
	</g>
	<g display="inline">
		<rect x="296.009" y="1485.989" fill="#EFEFEF" width="464.483" height="37.34"/>
	</g>
	<path display="inline" fill="#EFEFEF" d="M424.162-590.359v102.437l0.05,4.213c0,17.211-15.044,31.162-33.604,31.162
		s-33.604-13.951-33.604-31.162v-4.213v-236.319l0.251-45.555v-196.263l-0.062-1.381c0-17.211,15.045-33.418,33.604-33.418
		c18.558,0,33.603,16.207,33.603,33.418v1.381v92.771h40v-86.902c0-51.848-24.458-93.927-77.62-93.927
		c-46.013,0-77.771,42.053-77.771,93.927v3.383v458.93v5.277c0,53.699,33.708,97.236,79.511,97.236
		c50.298,0,82.933-39.018,82.933-97.236v-3.588v-94.171H424.162L424.162-590.359z"/>
	<polygon display="inline" fill="#EFEFEF" points="743.492,-1052.229 675.756,-1052.323 675.756,-1052.479 628.635,-1052.479 
		628.629,-1052.388 557.573,-1052.479 557.573,-1001.979 625.131,-1001.979 623,-971.268 623,-407.762 675.504,-407.762 
		675.734,-1001.979 743.492,-1001.979 	"/>
	<path display="inline" fill="#EFEFEF" d="M554.902-771.262h0.062l-23.034-42.957c0-0.016-0.016-0.029-0.022-0.037l-0.136-0.264
		h-0.045c-1.045-2.152-3.198-3.662-5.75-3.662c-2.555,0-4.706,1.51-5.763,3.662h-0.038l-0.132,0.248
		c-0.01,0.023-0.024,0.037-0.024,0.053l-21.055,39.269h0.091c-3.106,4.92-4.964,10.699-4.964,16.944
		c0,17.604,14.281,31.886,31.885,31.886c17.605,0,31.885-14.282,31.885-31.886C557.861-762.753,556.762-767.229,554.902-771.262z"/>
	<g display="inline">
		<path fill="#EFEFEF" d="M970.196-283.7H64.704v-905.488h905.491V-283.7z M100.509-319.504h833.88v-833.878h-833.88V-319.504
			L100.509-319.504z"/>
	</g>
	<path display="inline" fill="#EFEFEF" d="M1646.877-640.035v102.437l0.049,4.213c0,17.211-15.045,31.162-33.604,31.162
		s-33.604-13.951-33.604-31.162v-4.213v-236.319l0.251-45.555v-196.262l-0.062-1.381c0-17.211,15.046-33.418,33.604-33.418
		c18.559,0,33.603,16.207,33.603,33.418v1.381v92.771h40.002v-86.902c0-51.848-24.458-93.927-77.62-93.927
		c-46.013,0-77.771,42.053-77.771,93.927v3.383v458.929v5.277c0,53.699,33.707,97.236,79.512,97.236
		c50.297,0,82.932-39.018,82.932-97.236v-3.588v-94.171H1646.877L1646.877-640.035z"/>
	<polygon display="inline" fill="#EFEFEF" points="1966.207,-1097.905 1898.47,-1097.999 1898.47,-1098.156 1851.349,-1098.156 
		1851.343,-1098.064 1780.287,-1098.156 1780.287,-1047.655 1847.845,-1047.655 1845.714,-1016.945 1845.714,-453.438 
		1898.218,-453.438 1898.448,-1047.655 1966.207,-1047.655 	"/>
	<path display="inline" fill="#EFEFEF" d="M1777.615-797.938h0.062l-23.034-42.957c0-0.016-0.015-0.03-0.022-0.038l-0.136-0.264
		h-0.045c-1.045-2.152-3.198-3.661-5.75-3.661c-2.555,0-4.706,1.509-5.763,3.661h-0.038l-0.132,0.249
		c-0.01,0.023-0.024,0.038-0.024,0.053l-21.056,39.268h0.092c-3.105,4.92-4.965,10.699-4.965,16.944
		c0,17.604,14.281,31.886,31.886,31.886c17.605,0,31.885-14.282,31.885-31.886C1780.574-789.43,1779.476-793.905,1777.615-797.938z"
		/>
	
		<circle display="inline" fill="none" stroke="#EFEFEF" stroke-width="40" stroke-miterlimit="10" cx="1748.69" cy="-771.121" r="504.243"/>
	<path display="inline" fill="#EFEFEF" d="M1434.902,1890.189h0.062l-23.034-42.957c0-0.016-0.016-0.028-0.022-0.036l-0.136-0.265
		h-0.045c-1.045-2.151-3.198-3.662-5.75-3.662c-2.555,0-4.706,1.511-5.763,3.662h-0.038l-0.132,0.248
		c-0.01,0.023-0.024,0.037-0.024,0.053l-21.055,39.27h0.091c-3.106,4.92-4.964,10.699-4.964,16.944
		c0,17.604,14.279,31.886,31.885,31.886c17.604,0,31.885-14.282,31.885-31.886
		C1437.861,1898.699,1436.762,1894.224,1434.902,1890.189z"/>
	<path display="inline" fill="#EFEFEF" d="M2041.051,1892.412h-0.062l23.034,42.957c0,0.016,0.015,0.029,0.022,0.037l0.136,0.264
		h0.045c1.045,2.152,3.198,3.662,5.75,3.662c2.555,0,4.706-1.51,5.763-3.662h0.038l0.132-0.248c0.01-0.022,0.024-0.037,0.024-0.053
		l21.055-39.27h-0.091c3.105-4.92,4.964-10.698,4.964-16.943c0-17.604-14.28-31.887-31.885-31.887
		c-17.605,0-31.886,14.282-31.886,31.887C2038.092,1883.903,2039.191,1888.379,2041.051,1892.412z"/>
	<path display="inline" fill="#EFEFEF" d="M-925.971-590.359v102.437l0.05,4.213c0,17.211-15.045,31.162-33.604,31.162
		c-18.56,0-33.604-13.951-33.604-31.162v-4.213v-236.319l0.251-45.555v-196.263l-0.062-1.381c0-17.211,15.045-33.418,33.604-33.418
		c18.558,0,33.603,16.207,33.603,33.418v1.381v92.771h40.002v-86.902c0-51.848-24.458-93.927-77.62-93.927
		c-46.013,0-77.771,42.053-77.771,93.927v3.383v458.93v5.277c0,53.699,33.708,97.236,79.511,97.236
		c50.298,0,82.933-39.018,82.933-97.236v-3.588v-94.171H-925.971L-925.971-590.359z"/>
	<polygon display="inline" fill="#EFEFEF" points="-646.64,-1052.229 -714.377,-1052.323 -714.377,-1052.479 -761.499,-1052.479 
		-761.504,-1052.388 -832.559,-1052.479 -832.559,-1001.979 -765.002,-1001.979 -767.134,-971.268 -767.134,-407.762 
		-714.629,-407.762 -714.399,-1001.979 -646.64,-1001.979 	"/>
	<path display="inline" fill="#EFEFEF" d="M-538.83-733.851h0.062l-23.034-42.957c0-0.016-0.015-0.029-0.021-0.037l-0.136-0.264
		h-0.045c-1.045-2.152-3.198-3.662-5.75-3.662c-2.556,0-4.706,1.51-5.764,3.662h-0.038l-0.132,0.248
		c-0.009,0.023-0.023,0.037-0.023,0.053l-21.057,39.269h0.093c-3.105,4.92-4.966,10.699-4.966,16.944
		c0,17.604,14.281,31.886,31.887,31.886c17.604,0,31.885-14.282,31.885-31.886C-535.871-725.342-536.97-729.818-538.83-733.851z"/>
	<g display="inline">
		<path fill="#EFEFEF" d="M-399.937-283.7h-905.492v-905.488h905.492V-283.7L-399.937-283.7z M-1269.624-319.504h833.88v-833.878
			h-833.88V-319.504z"/>
	</g>
	<path display="inline" fill="#EFEFEF" d="M-1202.562-735.629h-0.062l23.034,42.957c0,0.016,0.015,0.029,0.021,0.037l0.136,0.264
		h0.045c1.046,2.152,3.198,3.662,5.75,3.662c2.556,0,4.706-1.51,5.764-3.662h0.038l0.132-0.248c0.009-0.023,0.023-0.037,0.023-0.053
		l21.057-39.269h-0.093c3.105-4.92,4.966-10.699,4.966-16.944c0-17.604-14.281-31.886-31.887-31.886
		c-17.604,0-31.885,14.282-31.885,31.886C-1205.521-744.138-1204.421-739.663-1202.562-735.629z"/>
	<path display="inline" fill="#EFEFEF" d="M-1411.78,188.148v34.754l48.246,27.256v-71.262l-0.062-1.381
		c0-17.211,15.045-33.418,33.604-33.418c18.558,0,33.603,16.207,33.603,33.418v1.381v92.771h40.002v-86.902
		c0-51.848-24.458-93.927-77.62-93.927c-46.013,0-77.771,42.053-77.771,93.927"/>
	<path display="inline" fill="#EFEFEF" d="M-1346.848,679.521v102.438l0.049,4.213c0,17.211-15.044,31.162-33.603,31.162
		c-18.561,0-33.604-13.951-33.604-31.162v-4.213V545.64l0.251-45.555V303.823l-0.062-1.381c0-17.211,15.045-33.418,33.603-33.418
		c18.559,0,33.604,16.207,33.604,33.418v1.381v92.771h40.002v-86.901c0-51.849-24.458-93.927-77.62-93.927
		c-46.013,0-77.771,42.053-77.771,93.927v3.383v458.929v5.277c0,53.698,33.708,97.235,79.511,97.235
		c50.298,0,82.933-39.018,82.933-97.235v-3.588v-94.172H-1346.848L-1346.848,679.521z"/>
	<polygon display="inline" fill="#EFEFEF" points="-1098.015,221.653 -1165.752,221.559 -1165.752,221.402 -1212.874,221.402 
		-1212.879,221.493 -1283.934,221.402 -1283.934,271.903 -1216.377,271.903 -1218.509,302.613 -1218.509,866.119 -1166.004,866.119 
		-1165.774,271.903 -1098.015,271.903 	"/>
	<path display="inline" fill="#EFEFEF" d="M-1301.611,515.207h0.043l-15.979-29.798c0-0.011-0.011-0.021-0.017-0.026l-0.094-0.184
		h-0.031c-0.725-1.493-2.218-2.539-3.989-2.539s-3.264,1.046-3.998,2.539h-0.025l-0.091,0.173c-0.006,0.016-0.018,0.026-0.018,0.037
		l-14.605,27.24h0.062c-2.154,3.411-3.443,7.422-3.443,11.754c0,12.211,9.906,22.119,22.119,22.119s22.117-9.908,22.117-22.119
		C-1299.558,521.109-1300.321,518.005-1301.611,515.207z"/>
	<path display="inline" fill="#4C4C4C" d="M-1072.021,1446.624v694.383h370.659v-694.383H-1072.021z M-927.286,1812.515
		l11.719-21.854c0-0.009,0.009-0.017,0.014-0.03l0.073-0.139h0.021c0.588-1.197,1.785-2.037,3.207-2.037
		c1.421,0,2.618,0.84,3.2,2.037h0.025l0.075,0.146c0.005,0.006,0.013,0.015,0.013,0.022l12.82,23.906h-0.035
		c1.035,2.245,1.646,4.736,1.646,7.379c0,9.798-7.946,17.746-17.745,17.746s-17.746-7.948-17.746-17.746
		c0-3.477,1.034-6.692,2.763-9.432L-927.286,1812.515L-927.286,1812.515z M-732.802,1619.357h-54.364l-0.186,476.759h-42.126
		v-452.119l1.71-24.64h-54.203v-0.189h-9.993v-74.434v-1.108c0-13.809-12.07-26.812-26.961-26.812
		c-14.889,0-26.96,13.003-26.96,26.812l0.05,1.108v31.505c31.169,7.707,45.671,37.676,45.671,73.438v69.726h-32.096v-74.435v-1.107
		c0-13.811-12.069-26.813-26.96-26.813c-14.889,0-26.96,13.004-26.96,26.813l0.049,1.107v157.468l-0.201,36.551v189.604v3.381
		c0,13.81,12.07,25.003,26.962,25.003c14.89,0,26.961-11.193,26.961-25.002l-0.039-3.382v-82.188h37.941v75.557v2.879
		c0,46.71-26.184,78.017-66.539,78.017c-36.75,0-63.794-34.932-63.794-78.017v-4.233v-368.213v-2.715
		c0-32.664,15.695-60.472,40.294-70.928v-26.593v-2.714c0-41.62,25.481-75.36,62.398-75.36c42.654,0,62.277,33.763,62.277,75.36
		v29.424l34.908,0.045l0.005-0.073h37.807v0.127l54.348,0.074L-732.802,1619.357L-732.802,1619.357z"/>
	<path display="inline" fill="#EFEFEF" d="M4017.853,890.549v278.79l0.133,11.466c0,46.84-40.944,84.812-91.454,84.812
		c-50.512,0-91.457-37.972-91.457-84.812v-11.466V526.18l0.685-123.981v-534.141l-0.168-3.761c0-46.842,40.946-90.951,91.45-90.951
		c50.51,0,91.452,44.109,91.452,90.951v3.761V120.54h108.867v-236.512c0-141.107-66.563-255.631-211.248-255.631
		c-125.228,0-211.661,114.451-211.661,255.631v9.207v1249.009v14.363c0,146.146,91.736,264.637,216.396,264.637
		c136.888,0,225.705-106.19,225.705-264.637v-9.765V890.549H4017.853z"/>
	<polygon display="inline" fill="#EFEFEF" points="4886.932,-355.576 4702.58,-355.83 4702.58,-356.26 4574.336,-356.26 
		4574.32,-356.01 4380.938,-356.26 4380.938,-218.816 4564.799,-218.816 4559.002,-135.238 4559.002,1398.386 4701.895,1398.386 
		4702.521,-218.816 4886.932,-218.816 	"/>
	<path display="inline" fill="#EFEFEF" d="M4373.668,460.803h0.168l-62.689-116.91c0-0.042-0.04-0.078-0.062-0.101l-0.367-0.718
		h-0.123c-2.846-5.856-8.703-9.967-15.648-9.967c-6.954,0-12.809,4.109-15.684,9.967h-0.104l-0.358,0.676
		c-0.022,0.062-0.064,0.101-0.064,0.143l-57.305,106.874h0.248c-8.451,13.39-13.513,29.118-13.513,46.115
		c0,47.909,38.869,86.779,86.78,86.779c47.914,0,86.774-38.87,86.774-86.779C4381.721,483.96,4378.729,471.781,4373.668,460.803z"/>
	<g display="inline">
		<path fill="#EFEFEF" d="M4294.944,1960.557c-192.588,0-379.444-37.729-555.377-112.146
			c-169.907-71.861-322.483-174.729-453.498-305.743s-233.883-283.593-305.745-453.497
			c-74.417-175.933-112.146-362.789-112.146-555.377c0-192.589,37.729-379.445,112.146-555.381
			c71.862-169.904,174.73-322.481,305.745-453.497c131.014-131.013,283.591-233.881,453.498-305.745
			c175.933-74.412,362.789-112.143,555.377-112.143c192.589,0,379.444,37.73,555.375,112.143
			c169.903,71.864,322.487,174.732,453.5,305.745c131.013,131.016,233.879,283.593,305.743,453.5
			c74.414,175.933,112.145,362.789,112.145,555.378c0,192.588-37.729,379.444-112.145,555.377
			c-71.863,169.904-174.73,322.481-305.743,453.497s-283.597,233.882-453.5,305.743
			C4674.39,1922.826,4487.533,1960.557,4294.944,1960.557z M4294.944-784.109c-177.938,0-350.528,34.837-512.969,103.545
			c-156.93,66.373-297.875,161.408-418.928,282.46c-121.053,121.051-216.088,261.997-282.461,418.928
			c-68.707,162.441-103.545,335.028-103.545,512.971c0,177.938,34.838,350.525,103.545,512.97
			c66.373,156.927,161.408,297.875,282.461,418.927c121.053,121.051,261.998,216.084,418.928,282.459
			c162.44,68.705,335.031,103.546,512.969,103.546s350.526-34.841,512.968-103.546c156.932-66.375,297.877-161.408,418.929-282.459
			c121.054-121.052,216.084-262,282.46-418.927c68.705-162.443,103.545-335.032,103.545-512.97
			c0-177.941-34.84-350.529-103.545-512.971c-66.376-156.931-161.406-297.877-282.46-418.928
			c-121.051-121.052-261.997-216.087-418.929-282.46C4645.472-749.272,4472.883-784.109,4294.944-784.109z"/>
	</g>
</g>
<g id="Layer_6">
	<path fill="#F9F6F3" d="M437.405,646.72v96.438l0.047,3.966c0,16.202-14.164,29.337-31.636,29.337s-31.636-13.135-31.636-29.337
		v-3.966V520.681l0.236-42.889V293.026l-0.06-1.301c0-16.203,14.164-31.461,31.633-31.461c17.474,0,31.636,15.258,31.636,31.461
		v1.301v87.339h37.658v-81.813c0-48.812-23.023-88.426-73.071-88.426c-43.319,0-73.216,39.589-73.216,88.426v3.184v432.048v4.97
		c0,50.555,31.731,91.541,74.853,91.541c47.352,0,78.074-36.732,78.074-91.541v-3.377V646.72H437.405z"/>
	<polygon fill="#F9F6F3" points="710.49,215.668 646.722,215.582 646.722,215.433 602.361,215.433 602.356,215.52 535.46,215.433 
		535.46,262.978 599.062,262.978 597.055,291.887 597.055,822.39 646.484,822.39 646.7,262.978 710.49,262.978 	"/>
	<path fill="#F9F6F3" d="M536.473,509.774h0.05l-19.485-36.341c0-0.014-0.013-0.023-0.02-0.03l-0.113-0.225h-0.038
		c-0.886-1.819-2.706-3.098-4.866-3.098c-2.161,0-3.979,1.277-4.875,3.098h-0.031l-0.111,0.211c-0.008,0.021-0.02,0.03-0.02,0.044
		l-17.812,33.222h0.077c-2.627,4.162-4.2,9.052-4.2,14.335c0,14.893,12.082,26.973,26.975,26.973
		c14.894,0,26.974-12.08,26.974-26.973C538.974,516.975,538.045,513.188,536.473,509.774z"/>
	<g>
		<path fill="#F9F6F3" d="M512,952.52c-59.864,0-117.946-11.729-172.634-34.856c-52.813-22.34-100.241-54.314-140.966-95.039
			c-40.726-40.727-72.7-88.151-95.04-140.965C80.23,626.97,68.502,568.888,68.502,509.024c0-59.866,11.729-117.947,34.858-172.637
			c22.339-52.812,54.314-100.24,95.04-140.966c40.725-40.724,88.152-72.699,140.966-95.039
			C394.054,77.254,452.136,65.525,512,65.525c59.862,0,117.945,11.729,172.635,34.858c52.812,22.34,100.242,54.315,140.965,95.039
			c40.725,40.726,72.699,88.153,95.039,140.967c23.129,54.688,34.858,112.77,34.858,172.636c0,59.862-11.729,117.944-34.858,172.635
			c-22.34,52.812-54.314,100.237-95.039,140.965c-40.723,40.725-88.152,72.699-140.965,95.039
			C629.946,940.791,571.863,952.52,512,952.52z M512,99.364c-55.312,0-108.959,10.829-159.452,32.186
			c-48.781,20.631-92.591,50.173-130.22,87.801c-37.628,37.626-67.169,81.438-87.801,130.22
			c-21.356,50.493-32.186,104.141-32.186,159.453c0,55.311,10.829,108.958,32.186,159.45
			c20.632,48.779,50.173,92.593,87.801,130.222c37.628,37.627,81.438,67.168,130.22,87.799
			c50.493,21.356,104.141,32.188,159.452,32.188s108.957-10.829,159.45-32.188c48.782-20.631,92.593-50.172,130.222-87.799
			c37.627-37.629,67.168-81.441,87.801-130.222c21.354-50.492,32.186-104.141,32.186-159.45c0-55.312-10.83-108.959-32.186-159.453
			c-20.633-48.781-50.174-92.593-87.801-130.22c-37.629-37.628-81.438-67.169-130.222-87.801
			C620.957,110.193,567.312,99.364,512,99.364z"/>
	</g>
</g>
</svg>
